<svg width="33" height="25" viewBox="0 0 33 25" fill="none" xmlns="http://www.w3.org/2000/svg">
<g clip-path="url(#clip0_85_164)">
<path d="M30.0054 0H2.46631C1.81218 0.0014263 1.18529 0.262091 0.722995 0.724887C0.260704 1.18768 0.000711788 1.81486 0 2.469V22.5337C0.000713461 23.1876 0.260792 23.8145 0.72316 24.2768C1.18553 24.7392 1.81243 24.9993 2.46631 25H30.0054C30.6595 25 31.2868 24.7402 31.7493 24.2776C32.2119 23.8151 32.4717 23.1878 32.4717 22.5337V2.469C32.4717 1.81464 32.2119 1.18706 31.7495 0.724106C31.2871 0.261155 30.6597 0.00071436 30.0054 0ZM30.0054 1.61725C30.1566 1.61816 30.3047 1.66008 30.434 1.73854L16.6658 13.531C16.5493 13.626 16.4037 13.6779 16.2534 13.6779C16.1031 13.6779 15.9574 13.626 15.841 13.531L2.32615 1.62803C2.37232 1.61866 2.41922 1.61325 2.46631 1.61186L30.0054 1.61725ZM30.0054 23.3828H2.46631C2.24135 23.382 2.0258 23.2924 1.86672 23.1333C1.70765 22.9742 1.61796 22.7587 1.61725 22.5337V3.16442L14.7844 14.7547C15.1946 15.0951 15.7109 15.2814 16.2439 15.2814C16.777 15.2814 17.2933 15.0951 17.7035 14.7547L30.8625 3.50673V22.5337C30.8625 22.6459 30.8403 22.757 30.7971 22.8605C30.754 22.964 30.6907 23.058 30.611 23.1369C30.5313 23.2159 30.4367 23.2783 30.3328 23.3205C30.2288 23.3626 30.1176 23.3838 30.0054 23.3828Z" fill="white"/>
</g>
<defs>
<clipPath id="clip0_85_164">
<rect width="32.4717" height="25" fill="white"/>
</clipPath>
</defs>
</svg>
