<svg width="12" height="23" viewBox="0 0 12 23" fill="none" xmlns="http://www.w3.org/2000/svg">
<g clip-path="url(#clip0_85_187)">
<path d="M11.4434 0.111084H8.58257C5.37841 0.111084 3.3186 2.22812 3.3186 5.51811V8.00705H0.457737C0.20026 8.00705 0 8.20731 0 8.46479V12.0695C0 12.3269 0.20026 12.5272 0.457737 12.5272H3.3186V21.6533C3.3186 21.9108 3.51886 22.1111 3.77633 22.1111H7.52406C7.78153 22.1111 7.98179 21.9108 7.98179 21.6533V12.5272H11.329C11.5865 12.5272 11.7867 12.3269 11.7867 12.0695V8.46479C11.7867 8.35036 11.7295 8.23592 11.6437 8.1501C11.5579 8.06427 11.4434 8.00705 11.329 8.00705H7.95319V5.89002C7.95319 4.86011 8.18205 4.34515 9.52666 4.34515H11.4434C11.7009 4.34515 11.9012 4.14489 11.9012 3.88742V0.568821C11.9012 0.311344 11.7009 0.111084 11.4434 0.111084Z" fill="black"/>
</g>
<defs>
<clipPath id="clip0_85_187">
<rect width="11.9012" height="22" fill="white" transform="translate(0 0.111084)"/>
</clipPath>
</defs>
</svg>
