<svg width="23" height="23" viewBox="0 0 23 23" fill="none" xmlns="http://www.w3.org/2000/svg">
<g clip-path="url(#clip0_85_189)">
<path d="M16.1409 0.111084H6.30353C2.95626 0.111084 0.222229 2.84511 0.222229 6.19239V16.0553C0.222229 19.4026 2.95626 22.1366 6.30353 22.1366H16.1665C19.5138 22.1366 22.2478 19.4026 22.2478 16.0553V6.19239C22.2222 2.84511 19.5138 0.111084 16.1409 0.111084ZM20.2803 16.0298C20.2803 18.3039 18.4406 20.1436 16.1665 20.1436H6.30353C4.02943 20.1436 2.18971 18.3039 2.18971 16.0298V6.19239C2.18971 3.91829 4.02943 2.07856 6.30353 2.07856H16.1665C18.4406 2.07856 20.2803 3.91829 20.2803 6.19239V16.0298Z" fill="black"/>
<path d="M11.235 5.45142C8.11773 5.45142 5.56256 8.00658 5.56256 11.1239C5.56256 14.2412 8.11773 16.7964 11.235 16.7964C14.3523 16.7964 16.9075 14.2412 16.9075 11.1239C16.882 7.98103 14.3523 5.45142 11.235 5.45142ZM11.235 14.8289C9.1909 14.8289 7.53004 13.168 7.53004 11.1239C7.53004 9.07975 9.1909 7.4189 11.235 7.4189C13.2792 7.4189 14.94 9.0542 14.94 11.1239C14.94 13.168 13.2792 14.8289 11.235 14.8289Z" fill="black"/>
<path d="M17.1374 3.79053C16.7541 3.79053 16.3964 3.94384 16.1153 4.19935C15.8598 4.45487 15.7065 4.83815 15.7065 5.22142C15.7065 5.6047 15.8598 5.96242 16.1153 6.24349C16.3708 6.49901 16.7541 6.65232 17.1374 6.65232C17.5207 6.65232 17.8784 6.49901 18.1594 6.24349C18.415 5.98797 18.5683 5.6047 18.5683 5.22142C18.5683 4.83815 18.415 4.48042 18.1594 4.19935C17.8784 3.94384 17.5207 3.79053 17.1374 3.79053Z" fill="black"/>
</g>
<defs>
<clipPath id="clip0_85_189">
<rect width="22" height="22" fill="white" transform="translate(0.222229 0.111084)"/>
</clipPath>
</defs>
</svg>
