<svg width="25" height="35" viewBox="0 0 25 35" fill="none" xmlns="http://www.w3.org/2000/svg">
<g clip-path="url(#clip0_85_166)">
<path d="M12.0366 35.0001C11.777 34.7495 11.4638 34.5258 11.258 34.2304C9.19074 31.2862 7.11455 28.3509 5.101 25.3619C3.43646 22.8919 1.9867 20.3056 0.993352 17.4866C0.366913 15.7237 -0.0178988 13.9249 0.00894854 12.0366C0.0894906 6.75665 3.70493 2.00467 8.78803 0.510164C15.5178 -1.45864 22.4444 2.45212 24.2253 9.23556C24.9054 11.8219 24.6459 14.3634 23.8315 16.8692C22.9545 19.6076 21.6211 22.1402 20.046 24.5296C18.2115 27.3038 16.2874 30.0065 14.3991 32.7449C14.0591 33.246 13.7369 33.7561 13.361 34.2304C13.1373 34.5168 12.842 34.7495 12.5735 35.0001C12.3945 35.0001 12.2155 35.0001 12.0366 35.0001ZM12.314 32.1185C12.3587 32.0648 12.4035 32.02 12.4303 31.9753C14.1575 29.5053 15.9115 27.0443 17.6029 24.5475C19.2138 22.1581 20.6546 19.6613 21.6479 16.9407C22.3459 15.0167 22.7576 13.0389 22.4802 10.9806C21.7464 5.47693 16.8601 1.55721 11.3206 2.11206C7.48146 2.50582 4.69829 4.52832 3.01585 7.99163C1.79877 10.4884 1.80772 13.0926 2.5684 15.7147C3.26643 18.131 4.41191 20.3414 5.69164 22.4803C7.67834 25.7825 9.99617 28.861 12.2066 32.0111C12.2334 32.0469 12.2692 32.0737 12.314 32.1185Z" fill="white"/>
<path d="M6.15694 12.296C6.15694 8.90428 8.92222 6.14795 12.3139 6.14795C15.7057 6.14795 18.462 8.91323 18.462 12.3049C18.462 15.6967 15.6967 18.453 12.305 18.453C8.91327 18.453 6.14799 15.6877 6.15694 12.296ZM12.305 16.4036C14.5602 16.4036 16.4126 14.5512 16.4037 12.287C16.4037 10.0408 14.5602 8.1973 12.3139 8.1973C10.0498 8.18835 8.19734 10.0319 8.19734 12.296C8.19734 14.5512 10.0498 16.4036 12.305 16.4036Z" fill="white"/>
</g>
<defs>
<clipPath id="clip0_85_166">
<rect width="24.6101" height="35" fill="white"/>
</clipPath>
</defs>
</svg>
