<svg width="23" height="35" viewBox="0 0 23 35" fill="none" xmlns="http://www.w3.org/2000/svg">
<path fill-rule="evenodd" clip-rule="evenodd" d="M3.33791 35H19.4246C21.2442 35 22.7243 33.5199 22.7243 31.7003V26.3258C22.7491 26.2409 22.7624 26.1511 22.7624 26.0582C22.7624 25.9653 22.7491 25.8755 22.7243 25.7906V3.29973C22.7243 1.48011 21.2442 0 19.4246 0H3.33791C1.51829 0 0.0381805 1.48011 0.0381805 3.29973V25.7904C0.0133295 25.8754 0 25.9652 0 26.0582C0 26.1512 0.0133295 26.2411 0.0381805 26.3261V31.7003C0.0381805 33.5199 1.51829 35 3.33791 35ZM20.8169 31.7003V27.0119H1.94554V31.7003C1.94554 32.467 2.57115 33.0926 3.33791 33.0926H19.4246C20.1913 33.0926 20.8169 32.467 20.8169 31.7003ZM1.94554 25.1045H20.8169V3.29973C20.8169 2.53297 20.1913 1.90736 19.4246 1.90736H3.33791C2.57115 1.90736 1.94554 2.53297 1.94554 3.29973V25.1045ZM12.5657 30.2279C12.5657 30.8832 12.0345 31.4143 11.3793 31.4143C10.7241 31.4143 10.193 30.8832 10.193 30.2279C10.193 29.5727 10.7241 29.0416 11.3793 29.0416C12.0345 29.0416 12.5657 29.5727 12.5657 30.2279ZM9.22019 5.87479H13.5384C14.0649 5.87479 14.4921 5.44755 14.4921 4.92111C14.4921 4.39468 14.0649 3.96744 13.5384 3.96744H9.22019C8.69376 3.96744 8.26651 4.39468 8.26651 4.92111C8.26651 5.44755 8.69376 5.87479 9.22019 5.87479Z" fill="white"/>
</svg>
