<svg width="32" height="20" viewBox="0 0 32 20" fill="none" xmlns="http://www.w3.org/2000/svg">
<g clip-path="url(#clip0_85_205)">
<path d="M8.50697 14.1314C9.99681 14.1314 11.2052 12.923 11.2052 11.4332C11.2052 9.94335 9.99681 8.73496 8.50697 8.73121C7.01713 8.72746 5.80875 9.93959 5.80499 11.4294C5.80875 12.923 7.01713 14.1314 8.50697 14.1314Z" fill="black"/>
<path d="M23.7243 14.1313C25.2145 14.1313 26.4226 12.9233 26.4226 11.4331C26.4226 9.9429 25.2145 8.73486 23.7243 8.73486C22.2342 8.73486 21.0261 9.9429 21.0261 11.4331C21.0261 12.9233 22.2342 14.1313 23.7243 14.1313Z" fill="black"/>
<path d="M0.896422 11.4331C0.896422 15.6362 4.30391 19.0437 8.50699 19.0437C10.4246 19.0475 12.2747 18.3232 13.6783 17.0172L16.1176 19.6704L18.5568 17.0172C19.9604 18.3232 21.8105 19.0475 23.7281 19.0437C27.9312 19.0437 31.3424 15.6362 31.3424 11.4331C31.3462 9.29033 30.4418 7.24884 28.8581 5.80778L31.3462 3.0983H25.8259C19.9716 -0.883354 12.2785 -0.883354 6.42422 3.0983H0.888916L3.37699 5.80778C1.79708 7.24884 0.892669 9.29033 0.896422 11.4331ZM28.8769 11.4331C28.8769 14.2777 26.5727 16.5819 23.7281 16.5819C20.8835 16.5819 18.5794 14.2777 18.5794 11.4331C18.5794 8.58856 20.8835 6.28438 23.7281 6.28438C26.5727 6.28438 28.8769 8.58856 28.8769 11.4331ZM16.1176 2.59919C18.0802 2.59544 20.0242 2.98572 21.833 3.74378C18.5831 4.98593 16.1176 7.89431 16.1176 11.283C16.1176 7.89431 13.652 4.98593 10.4021 3.74378C12.2109 2.98572 14.1549 2.59919 16.1176 2.59919ZM8.50699 6.28063C11.3516 6.28063 13.6558 8.58481 13.6558 11.4294C13.6558 14.274 11.3516 16.5819 8.50699 16.5819C5.66241 16.5819 3.35822 14.2777 3.35822 11.4331C3.35822 8.58856 5.66241 6.28063 8.50699 6.28063Z" fill="black"/>
</g>
<defs>
<clipPath id="clip0_85_205">
<rect width="30.4573" height="19.5556" fill="white" transform="translate(0.888916 0.111084)"/>
</clipPath>
</defs>
</svg>
